<svg xmlns="http://www.w3.org/2000/svg" width="76" height="50" viewBox="0 0 76 50" fill="none">
  <path d="M 40.12 0.038 C 41.13 0.003 46.997 -0.087 47.511 0.245 C 47.594 0.298 47.619 0.319 47.638 0.415 C 47.407 0.706 46.064 1.067 44.883 1.467 C 43.723 2.035 42.455 2.614 40.12 4.002 C 37.206 5.735 35.842 7.508 35.905 9.887 C 35.992 13.193 42.025 14.48 43.915 16.57 C 44.237 16.927 44.476 17.368 44.445 17.877 C 44.108 20.077 38.4 20.075 36.616 20.611 C 33.453 21.561 31.596 22.239 29.944 25.002 C 29.653 25.487 29.437 26.021 29.328 26.578 C 28.67 29.966 30.422 31.301 29.07 31.216 C 28.593 31.183 26.916 29.47 26.554 29.152 C 26.138 28.786 25.389 27.687 25.02 27.19 L 22.251 23.431 C 21.807 22.829 21.125 21.859 20.644 21.313 C 20.602 26.694 20.593 32.075 20.616 37.456 C 20.628 39.529 20.35 39.501 18.371 39.484 C 17.802 39.48 17.189 39.483 16.618 39.483 L 10.289 39.482 C 9.859 39.48 9.28 39.524 8.977 39.175 C 8.547 38.679 8.686 37.416 8.686 36.756 L 8.693 9.498 C 8.691 6.917 8.686 4.337 8.685 1.755 C 8.622 1.071 8.819 0.159 9.69 0.147 C 12.358 0.112 15.065 0.147 17.739 0.134 C 18.227 0.132 18.863 0.211 19.257 0.527 C 20.255 1.327 21.046 2.424 21.942 3.344 C 24.118 5.679 26.185 8.157 28.378 10.474 C 29.095 9.787 29.925 8.831 30.625 8.081 L 35.19 3.203 C 36.9 1.392 37.462 0.158 40.12 0.038 Z" fill="currentColor" fill-rule="nonzero"></path>
  <path d="M 54.391 0.52 C 58.073 0.553 61.691 1.496 64.934 3.268 C 65.798 3.752 68.042 4.925 67.473 6.211 C 66.615 8.15 65.694 10.079 64.778 11.991 C 64.548 12.47 64.028 12.943 63.497 12.57 C 61.08 11.155 58.26 10.045 55.434 10.11 C 54.435 10.133 53.113 10.59 52.773 11.657 C 52.251 13.435 54.561 14.493 55.83 15.014 C 59.133 16.369 62.743 17.247 65.449 19.748 C 67.68 21.796 68.879 24.377 69.027 27.415 C 69.191 30.473 68.19 33.424 66.16 35.693 C 63.487 38.646 59.824 39.917 55.961 40.097 C 55.852 40.106 55.743 40.111 55.634 40.113 C 51.01 40.206 45.835 38.524 41.897 36.108 C 40.986 35.548 40.086 34.956 39.318 34.201 C 38.641 33.535 37.413 32.599 37.408 31.598 C 37.395 28.866 41.299 28.065 43.967 28.352 C 45.47 28.514 47.321 28.374 49.548 27.647 C 49.9 27.532 50.256 27.381 50.6 27.213 C 52.347 26.36 53.41 24.561 53.711 22.612 C 53.787 22.12 53.838 21.692 53.833 21.449 C 53.751 17.18 43.741 13.968 41.024 11.252 C 40.432 10.66 39.995 9.944 39.995 9.072 C 39.994 7.695 40.95 6.388 41.857 5.455 C 42.649 4.641 43.558 3.951 44.508 3.34 C 47.519 1.406 50.842 0.54 54.391 0.52 Z" fill="currentColor" fill-rule="nonzero"></path>
  <path d="M 73.456 38.844 C 73.202 39.002 72.947 39.163 72.69 39.317 C 65.674 43.515 57.027 45.143 48.983 44.492 C 47.735 44.401 46.49 44.253 45.254 44.049 C 40.775 43.292 36.357 41.952 31.894 41.061 C 25.933 39.819 19.847 39.302 13.766 39.521 C 13.445 39.531 12.921 39.607 12.559 39.633 C 9.269 39.854 6.012 40.435 2.844 41.368 C 1.963 41.631 1.026 41.947 0.185 42.324 C 0.114 42.355 0.066 42.359 0 42.332 C 0.08 42.142 0.613 41.844 0.809 41.706 C 2.379 40.603 4.151 39.712 5.914 38.983 C 16.14 34.76 27.468 35.806 37.985 38.207 C 38.592 38.346 39.225 38.429 39.824 38.601 C 39.924 38.629 39.977 38.678 40.112 38.706 C 40.585 38.804 41.057 38.902 41.529 39.003 C 41.729 39.046 41.893 39.107 42.087 39.166 C 42.603 39.295 43.127 39.408 43.647 39.525 C 43.782 39.555 43.833 39.623 44.009 39.668 L 46.204 40.217 C 49.365 40.986 51.895 41.43 55.135 41.64 C 56.473 41.634 57.812 41.677 59.151 41.644 C 59.327 41.639 59.519 41.635 59.694 41.64 C 64.281 41.376 69.263 40.357 73.524 38.636 L 73.456 38.844 Z" fill="currentColor" fill-rule="nonzero"></path>
  <path d="M 42.563 49.21 C 42.279 49.217 41.307 48.999 41.001 48.939 C 39.23 48.594 37.467 48.203 35.714 47.768 C 31.064 46.656 26.393 45.432 21.648 44.817 C 16.504 44.151 11.26 44.193 6.19 45.37 C 5.942 45.428 5.654 45.552 5.407 45.549 L 5.394 45.486 C 12.972 41.08 23.083 41.185 31.425 42.806 C 35.323 43.563 39.172 44.611 43.073 45.447 C 44.552 45.748 46.042 45.988 47.54 46.166 C 48.229 46.249 49.2 46.296 49.842 46.421 C 50.33 46.422 50.778 46.477 51.256 46.496 C 53.363 46.579 55.463 46.569 57.571 46.495 C 58.108 46.476 58.61 46.403 59.155 46.423 C 59.516 46.231 62.507 46.169 63.129 45.969 C 63.459 45.957 63.71 45.869 64.032 45.821 C 65.589 45.59 67.148 45.227 68.682 44.85 C 68.992 44.774 69.26 44.643 69.556 44.574 L 69.58 44.568 C 69.708 44.568 69.818 44.565 69.946 44.583 C 70.027 44.69 70.002 44.65 70.006 44.811 C 69.908 44.989 69.509 45.145 69.33 45.261 C 67.98 46.125 66.553 46.861 65.07 47.458 C 62.62 48.434 60.045 49.106 57.45 49.552 C 57.174 49.599 56.558 49.699 56.31 49.678 C 55.538 49.852 54.278 49.902 53.479 49.938 C 50.405 50.097 47.322 49.95 44.276 49.499 C 43.829 49.434 42.961 49.328 42.563 49.21 Z" fill="currentColor" fill-rule="nonzero"></path>
  <path d="M 75.613 35.595 C 75.682 35.579 75.956 35.524 76 35.553 C 75.482 35.992 75.312 36.13 74.676 36.45 C 74.577 36.5 74.396 36.66 74.282 36.724 C 70.995 38.554 67.091 39.409 63.484 40.298 C 63.371 40.339 63.302 40.352 63.187 40.376 L 63.16 40.343 C 64.001 39.729 64.403 39.612 65.304 39.073 C 65.97 38.674 66.953 37.87 67.916 36.892 C 70.251 36.173 73.25 36.246 75.613 35.595 Z" fill="currentColor" fill-rule="nonzero"></path>
  <path d="M 69.58 44.568 C 69.762 44.489 70.792 44.126 70.925 44.157 C 70.772 44.363 70.24 44.747 70.006 44.811 C 70.002 44.65 70.027 44.69 69.946 44.583 C 69.818 44.565 69.708 44.568 69.58 44.568 Z" fill="currentColor" fill-rule="nonzero"></path>
  <path d="M 73.524 38.636 C 73.658 38.566 73.777 38.49 73.926 38.477 C 73.877 38.631 73.579 38.752 73.456 38.844 L 73.524 38.636 Z" fill="currentColor" fill-rule="nonzero"></path>
</svg>